<?xml version="1.0" encoding="UTF-8" standalone="no"?>
<!DOCTYPE svg PUBLIC "-//W3C//DTD SVG 1.1//EN" "http://www.w3.org/Graphics/SVG/1.1/DTD/svg11.dtd"
[
<!ATTLIST g
  xmlns:vectornator CDATA #FIXED "http://vectornator.io"
  vectornator:layerName CDATA #IMPLIED >
<!ATTLIST g
  xmlns:vectornator CDATA #FIXED "http://vectornator.io"
  vectornator:mask CDATA #IMPLIED >
<!ATTLIST text
  xmlns:vectornator CDATA #FIXED "http://vectornator.io"
  vectornator:width CDATA #IMPLIED >
<!ATTLIST text
  xmlns:vectornator CDATA #FIXED "http://vectornator.io"
  vectornator:text CDATA #IMPLIED >

<!ATTLIST path
  xmlns:vectornator CDATA #FIXED "http://vectornator.io"
  vectornator:blendMode CDATA #IMPLIED >
<!ATTLIST path
  xmlns:vectornator CDATA #FIXED "http://vectornator.io"
  vectornator:shadowColor CDATA #IMPLIED >
<!ATTLIST path
  xmlns:vectornator CDATA #FIXED "http://vectornator.io"
  vectornator:shadowOpacity CDATA #IMPLIED >
<!ATTLIST path
  xmlns:vectornator CDATA #FIXED "http://vectornator.io"
  vectornator:shadowRadius CDATA #IMPLIED >
<!ATTLIST path
  xmlns:vectornator CDATA #FIXED "http://vectornator.io"
  vectornator:shadowOffset CDATA #IMPLIED >
<!ATTLIST path
  xmlns:vectornator CDATA #FIXED "http://vectornator.io"
  vectornator:shadowAngle CDATA #IMPLIED >

<!ATTLIST image
  xmlns:vectornator CDATA #FIXED "http://vectornator.io"
  vectornator:blendMode CDATA #IMPLIED >
<!ATTLIST image
  xmlns:vectornator CDATA #FIXED "http://vectornator.io"
  vectornator:shadowColor CDATA #IMPLIED >
<!ATTLIST image
  xmlns:vectornator CDATA #FIXED "http://vectornator.io"
  vectornator:shadowOpacity CDATA #IMPLIED >
<!ATTLIST image
  xmlns:vectornator CDATA #FIXED "http://vectornator.io"
  vectornator:shadowRadius CDATA #IMPLIED >
<!ATTLIST image
  xmlns:vectornator CDATA #FIXED "http://vectornator.io"
  vectornator:shadowOffset CDATA #IMPLIED >
<!ATTLIST image
  xmlns:vectornator CDATA #FIXED "http://vectornator.io"
  vectornator:shadowAngle CDATA #IMPLIED >

<!ATTLIST g
  xmlns:vectornator CDATA #FIXED "http://vectornator.io"
  vectornator:blendMode CDATA #IMPLIED >
<!ATTLIST g
  xmlns:vectornator CDATA #FIXED "http://vectornator.io"
  vectornator:shadowColor CDATA #IMPLIED >
<!ATTLIST g
  xmlns:vectornator CDATA #FIXED "http://vectornator.io"
  vectornator:shadowOpacity CDATA #IMPLIED >
<!ATTLIST g
  xmlns:vectornator CDATA #FIXED "http://vectornator.io"
  vectornator:shadowRadius CDATA #IMPLIED >
<!ATTLIST g
  xmlns:vectornator CDATA #FIXED "http://vectornator.io"
  vectornator:shadowOffset CDATA #IMPLIED >
<!ATTLIST g
  xmlns:vectornator CDATA #FIXED "http://vectornator.io"
  vectornator:shadowAngle CDATA #IMPLIED >

<!ENTITY % SVG.filter.extra.content  "| feDropShadow" >
<!ELEMENT feDropShadow EMPTY>
<!ATTLIST feDropShadow
  xmlns:svg CDATA #FIXED "http://www.w3.org/Graphics/SVG/1.1/DTD/svg11.dtd"
  dx CDATA #IMPLIED>
<!ATTLIST feDropShadow
  xmlns:svg CDATA #FIXED "http://www.w3.org/Graphics/SVG/1.1/DTD/svg11.dtd"
  dy CDATA #IMPLIED>
<!ATTLIST feDropShadow
  xmlns:svg CDATA #FIXED "http://www.w3.org/Graphics/SVG/1.1/DTD/svg11.dtd"
  stdDeviation CDATA #IMPLIED>
<!ATTLIST feDropShadow
  xmlns:svg CDATA #FIXED "http://www.w3.org/Graphics/SVG/1.1/DTD/svg11.dtd"
  flood-opacity CDATA #IMPLIED>
<!ATTLIST feDropShadow
  xmlns:svg CDATA #FIXED "http://www.w3.org/Graphics/SVG/1.1/DTD/svg11.dtd"
  in CDATA #IMPLIED>
<!ATTLIST feDropShadow
  xmlns:svg CDATA #FIXED "http://www.w3.org/Graphics/SVG/1.1/DTD/svg11.dtd"
  result CDATA #IMPLIED>
<!ATTLIST feDropShadow
  xmlns:svg CDATA #FIXED "http://www.w3.org/Graphics/SVG/1.1/DTD/svg11.dtd"
  flood-color CDATA #IMPLIED>
]
>
<!-- Created with Vectornator (http://vectornator.io/) -->
<svg height="100%" stroke-miterlimit="10" style="fill-rule:nonzero;clip-rule:evenodd;stroke-linecap:round;stroke-linejoin:round;" version="1.1" viewBox="0 0 650 318" width="100%" xml:space="preserve" xmlns="http://www.w3.org/2000/svg" xmlns:vectornator="http://vectornator.io" xmlns:xlink="http://www.w3.org/1999/xlink">
<defs/>
<g id="Untitled" vectornator:layerName="Untitled">
<g opacity="1">
<path d="M522.4 8C508.2 15.1 495.2 26.3 485 40.1C481.5 44.7 469.2 64.5 457.5 84C445.8 103.5 433.1 124.7 429.3 131C425.4 137.3 420 146.8 417.2 152C413.5 158.9 410.2 163.3 405.3 168.1C390.8 182.2 378.7 190 371.1 190C360.5 190 363.6 177.5 383.3 141.2L389.5 129.8L394.8 130.5C398.2 130.9 400 130.8 400 130.1C400 129.1 397.9 128.3 393.2 127.8L390.8 127.5L393.4 123.7C394.8 121.7 395.7 120 395.4 120C391.8 120 385.6 122.7 384 125C382.4 127.2 381.1 127.8 376.5 128.3C359.8 130 334.4 151.5 326.3 170.8C324.6 174.8 320.4 179.1 311.5 185.7C302.2 192.7 295 194.9 291.5 192C289.2 190.1 289.6 182 292.4 174.6C295.1 167.4 295.6 166.5 305.2 152.9C310.5 145.4 312 142.4 312 139.7C312 135.9 309 131.3 307.2 132.4C306.6 132.8 302.6 139.3 298.4 146.8C284 172.6 278.5 180.2 271.7 183.6C267.6 185.8 265.4 183.8 266.4 178.7C267.3 174 275.4 157.6 282.9 145.5C286.2 140.1 289 135.1 289 134.5C289 132.6 284.2 128.7 282.6 129.3C281.8 129.6 277.7 136 273.5 143.4C256.5 173.6 253.3 184.8 260.8 187.9C265.8 190 274.5 186.6 279.8 180.6L282.9 177L282.3 183.5C281.6 191.2 283.1 194.2 288.5 196C295.3 198.2 306.4 193.7 318.1 183.9L323 179.8L323 183.8C323 188.9 324.8 190.4 330.1 189.7C336 188.9 344.1 183.6 353.1 174.6C357.4 170.2 361 166.9 361 167.1C361 167.3 359.9 170.2 358.5 173.5C355.4 181.1 355.2 187.8 358.1 191.4C359.9 193.7 360.8 194 366.5 194C376.6 194 388.9 187 403.3 173.1C409.3 167.2 409.5 167.2 408 173.5C406.9 178.3 408.2 183.9 411 186.5C415.8 190.8 428.2 190.1 439.3 184.7C446.6 181.2 452.9 176.9 461.8 169.2L466.8 165L464.9 170C463.9 172.8 463 177 463 179.4C463 183.1 463.5 184.2 465.8 186C468.2 188 469.4 188.2 476.5 187.8C488 187.1 495.6 183.2 511.7 169.2L517.8 163.9L515.8 170.2C512.4 181.2 515 188 523.5 189.6C530.6 190.9 550.7 184.7 558.5 178.7C562.5 175.6 558.8 175.7 553.2 178.7C533.5 189.5 523.9 185 528.1 167.2C529.2 162.5 539.6 140 542.1 136.8C543.3 135.3 545.8 134.9 556.5 134.5C573.7 133.7 580 133.1 580 131.9C580 131.4 572.7 131 562.9 131C548.8 131 545.9 130.8 546.3 129.6C547.3 127 562.9 102 567 96.5C569.4 93.3 572.8 90.1 575.3 88.8C582.1 85.2 577.3 85.6 568 89.3L559.5 92.7L550.5 107.3C545.6 115.3 540.3 123.9 538.8 126.4L536 131L529.2 131C523.8 131 522 131.4 520.7 132.8C517.4 136.4 518.5 137.1 526.2 136.3L533.4 135.7L531.9 138.1C531 139.4 528.4 144 526 148.3C520.9 157.7 510 168.8 498.5 176.4C486.1 184.6 478.5 186.3 475.4 181.5C473.4 178.4 474 174.8 477.9 165.2C480.8 158.1 490.6 139.8 494.1 134.8C497 130.8 496.6 128.6 493.3 129.4C488.4 130.6 485.6 133.4 479.5 143.6C466.7 164.8 441.5 184.9 427.7 185C422.7 185 419 181.5 419 176.7C419 168.9 425.4 153.7 437.6 132.5C444.6 120.3 445.5 119.2 450.8 116.1C467.4 106.3 491 85.4 505.5 67.5C526.1 42.1 541.8 11.3 537 5.5C535 3 530.7 3.8 522.4 8ZM524.8 17C525.5 26.8 516.7 46.2 503 64.7C495.4 75.1 480.3 90.9 470.5 99C463 105.1 449.8 114.2 449.3 113.6C448.9 113.2 471.9 76.1 484.8 56.5C502.6 29.2 517.6 11.5 522.3 12.2C524.1 12.4 524.6 13.2 524.8 17ZM377.4 136.7C369.3 151.4 362.8 161 356.3 168C348.6 176.3 338.8 184 335.8 184C334 184 333.8 183.6 334.4 179.7C335.1 175.2 341.3 162.4 346.1 155.3C355.8 141.3 370.1 130.2 378.8 130C381.1 130 381 130.1 377.4 136.7Z" fill="#ffffff" fill-rule="evenodd" opacity="1" stroke="none"/>
<path d="M191.4 68C182.5 70.3 172.2 75.5 164.8 81.4C150.3 92.9 132.9 118.5 126.5 137.5C122.4 149.5 123.7 164.9 129.5 173.4L132 177.1L122.5 186.3C113.3 195.2 111.4 198 114.5 198C115.3 198 116 197.6 116 197.2C116 196.2 128.8 183.2 131.5 181.4C133.3 180.2 134.5 180.5 141.5 184C148.4 187.4 151 188.1 160.5 189.1C171.4 190.3 176.3 189.8 191 186.5C193.4 185.9 193.9 186.7 200.9 200.7C209.8 218.3 216 225.5 224.9 228.5C236.1 232.2 246.6 229.1 257.5 218.8C263.5 213.3 272 201.7 272 199.2C272 196.6 270 198.3 266.6 203.7C262.7 210.3 255.1 218 250.3 220.4C246.7 222.2 239.5 222.5 235.5 221C231.5 219.5 223.7 211.7 218.2 203.7C213 196.1 203.7 180.8 204.2 180.6C204.4 180.5 207.7 178.5 211.7 176.1C237.8 160.6 258 126.5 258 97.9C258 85.7 256.1 80.1 249.6 73.4C245.3 68.9 243.8 68 240.9 68C239 68 235.1 67.7 232.3 67.4C226 66.6 225.4 67.9 231 70.4C239.4 74.1 244.9 84.3 246.5 99.1C248.9 122 233.5 155.2 212.9 171.5C203.3 179.1 203.5 179 196 171.7C188.3 164.2 183 162 172.9 162C163.7 162 156.8 163.6 148.3 167.6C144.4 169.5 140.9 171 140.7 171C139.4 171 138 164 138 157.5C138 147.4 141.1 136.3 147.4 123.5C155.3 107.6 162.2 97.8 173.5 86.4C185.3 74.5 193.7 69.6 204.5 68.5C208.1 68.1 211 67.4 211 66.9C211 65.4 198.8 66 191.4 68ZM179.9 169.3C183.9 172 190.9 180.4 191 182.7C191.1 186.5 165.7 187.8 155.6 184.5C150 182.7 142 176.7 142 174.3C142 173.3 153.3 167.7 157.5 166.6C158.6 166.4 163.2 166.2 167.7 166.4C174.6 166.6 176.5 167 179.9 169.3Z" fill="#ffffff" fill-rule="evenodd" opacity="1" stroke="none"/>
<path d="M506.2 89.5C504.6 90.9 502.9 93.2 502.6 94.6C500.8 101.5 505.9 103.3 511.6 97.6C518.7 90.5 513.8 83.1 506.2 89.5Z" fill="#ffffff" fill-rule="evenodd" opacity="1" stroke="none"/>
<path d="M87.9 99.2C73.7 109.3 60.9 119.5 48.2 130.9C37.1 141 33 145.8 33 149.2C33 151.9 38.3 160.8 40.4 161.6C41.1 161.9 46.7 161.2 52.9 160C59 158.8 64.6 158 65.4 158.2C66.6 158.4 66.1 160.2 63.3 166.5C58.9 176.3 57.7 186.4 60.4 190.5C61.8 192.6 62.4 192.9 63.5 192C64.3 191.3 65.2 189.8 65.6 188.7C65.9 187.5 69.6 179.6 73.8 171.1L81.4 155.8L86.2 156.3C88.8 156.6 91.2 156.5 91.5 156C92.3 154.7 89.4 149.4 87.5 148.6C85.6 147.9 86.1 146.9 101.7 120.9C106.8 112.3 111 104.5 111 103.5C111 102.5 109.6 99.3 107.9 96.4C103.6 88.8 102.1 89 87.9 99.2ZM87.6 120.2C83.6 127 78.6 135.5 76.6 139.2C73.2 145.4 72.6 146 69.7 146C66.8 146 54.4 147.9 46 149.6L42.5 150.3L45.5 147C50.4 141.8 69.7 125.9 82.3 116.6C88.8 111.9 94.3 108 94.5 108C94.7 108 91.6 113.5 87.6 120.2Z" fill="#ffffff" fill-rule="evenodd" opacity="1" stroke="none"/>
<path d="M616.6 131.7C614.3 135.5 608.8 145.2 604.4 153.3C595 170.9 592 174.7 584.7 178.3C578.4 181.4 575.5 181.7 574.6 179.4C573.3 175.9 575.5 170.8 587 151.5C591.2 144.3 595.5 137 596.4 135.1L598.2 131.7L593.9 132.4C591.5 132.8 588.7 133.9 587.8 134.8C584.7 137.9 567.7 165.4 565.3 171C562.5 177.8 562.4 180.4 565 183C566.5 184.5 568.3 185 572 185C577.2 185 580.1 184 586.3 180.3C588.3 179 590 178.3 590 178.8C590 179.2 584.6 188.5 578 199.4C541.2 260.3 511.2 291.5 484.1 297.1C476.3 298.7 465.5 297.8 460.2 295.1C455.5 292.7 451.5 287.2 450.4 281.6C449.5 276.7 448.1 278.2 447.3 284.8C444.5 308.4 476.2 311.9 507.1 291.4C511.1 288.7 519.2 281.8 525.1 276C541.5 259.6 555.6 240.4 585 194C592.9 181.6 602.7 167 606.9 161.5C621.2 142.6 626 135 626 131C626 127.3 624.6 125 622.3 125C621.6 125 619 128 616.6 131.7Z" fill="#ffffff" fill-rule="evenodd" opacity="1" stroke="none"/>
</g>
</g>
</svg>
